STARTFONT 2.1
FONT -bwoolley-code7-bold-r-normal--7-70-75-75-M-60-iso10646-1
SIZE 7 75 75
FONTBOUNDINGBOX 6 7 0 -1

STARTPROPERTIES 20
FONTNAME_REGISTRY ""
FOUNDRY "bwoolley"
FAMILY_NAME "code7"
WEIGHT_NAME "bold"
SLANT "r"
SETWIDTH_NAME "normal"
ADD_STYLE_NAME ""
PIXEL_SIZE 7
POINT_SIZE 70
RESOLUTION_X 75
RESOLUTION_Y 75
SPACING "M"
AVERAGE_WIDTH 60
CHARSET_REGISTRY "ISO10646"
CHARSET_ENCODING "1"
DESTINATION 1
FONT_ASCENT  6
FONT_DESCENT 1
FONT_VERSION "1"
COPYRIGHT ""
ENDPROPERTIES

CHARS      209
STARTCHAR U+000A0
ENCODING 160
SWIDTH 960 0
DWIDTH 6 0
BBX 6 7 0 -1
BITMAP
00
00
00
00
00
00
00
ENDCHAR
STARTCHAR U+0020
ENCODING 32
SWIDTH 960 0
DWIDTH 6 0
BBX 6 7 0 -1
BITMAP
00
00
00
00
00
00
00
ENDCHAR
STARTCHAR U+0021
ENCODING 33
SWIDTH 960 0
DWIDTH 6 0
BBX 6 7 0 -1
BITMAP
20
20
20
20
00
20
00
ENDCHAR
STARTCHAR U+0022
ENCODING 34
SWIDTH 960 0
DWIDTH 6 0
BBX 6 7 0 -1
BITMAP
50
50
00
00
00
00
00
ENDCHAR
STARTCHAR U+0023
ENCODING 35
SWIDTH 960 0
DWIDTH 6 0
BBX 6 7 0 -1
BITMAP
00
50
F8
50
F8
50
00
ENDCHAR
STARTCHAR U+0024
ENCODING 36
SWIDTH 960 0
DWIDTH 6 0
BBX 6 7 0 -1
BITMAP
20
78
A0
70
28
F0
20
ENDCHAR
STARTCHAR U+0025
ENCODING 37
SWIDTH 960 0
DWIDTH 6 0
BBX 6 7 0 -1
BITMAP
C8
C8
10
20
40
98
98
ENDCHAR
STARTCHAR U+0026
ENCODING 38
SWIDTH 960 0
DWIDTH 6 0
BBX 6 7 0 -1
BITMAP
40
A0
40
A8
90
68
00
ENDCHAR
STARTCHAR U+0027
ENCODING 39
SWIDTH 960 0
DWIDTH 6 0
BBX 6 7 0 -1
BITMAP
20
20
00
00
00
00
00
ENDCHAR
STARTCHAR U+0028
ENCODING 40
SWIDTH 960 0
DWIDTH 6 0
BBX 6 7 0 -1
BITMAP
08
10
20
20
20
10
08
ENDCHAR
STARTCHAR U+0029
ENCODING 41
SWIDTH 960 0
DWIDTH 6 0
BBX 6 7 0 -1
BITMAP
80
40
20
20
20
40
80
ENDCHAR
STARTCHAR U+002A
ENCODING 42
SWIDTH 960 0
DWIDTH 6 0
BBX 6 7 0 -1
BITMAP
00
20
A8
70
A8
20
00
ENDCHAR
STARTCHAR U+002B
ENCODING 43
SWIDTH 960 0
DWIDTH 6 0
BBX 6 7 0 -1
BITMAP
00
20
20
F8
20
20
00
ENDCHAR
STARTCHAR U+002C
ENCODING 44
SWIDTH 960 0
DWIDTH 6 0
BBX 6 7 0 -1
BITMAP
00
00
00
00
60
40
80
ENDCHAR
STARTCHAR U+002D
ENCODING 45
SWIDTH 960 0
DWIDTH 6 0
BBX 6 7 0 -1
BITMAP
00
00
00
F8
00
00
00
ENDCHAR
STARTCHAR U+002E
ENCODING 46
SWIDTH 960 0
DWIDTH 6 0
BBX 6 7 0 -1
BITMAP
00
00
00
00
60
60
00
ENDCHAR
STARTCHAR U+002F
ENCODING 47
SWIDTH 960 0
DWIDTH 6 0
BBX 6 7 0 -1
BITMAP
08
08
10
20
40
80
80
ENDCHAR
STARTCHAR U+0030
ENCODING 48
SWIDTH 960 0
DWIDTH 6 0
BBX 6 7 0 -1
BITMAP
70
88
A8
A8
88
70
00
ENDCHAR
STARTCHAR U+0031
ENCODING 49
SWIDTH 960 0
DWIDTH 6 0
BBX 6 7 0 -1
BITMAP
20
60
20
20
20
F8
00
ENDCHAR
STARTCHAR U+0032
ENCODING 50
SWIDTH 960 0
DWIDTH 6 0
BBX 6 7 0 -1
BITMAP
70
88
10
20
40
F8
00
ENDCHAR
STARTCHAR U+0033
ENCODING 51
SWIDTH 960 0
DWIDTH 6 0
BBX 6 7 0 -1
BITMAP
F8
10
20
10
88
70
00
ENDCHAR
STARTCHAR U+0034
ENCODING 52
SWIDTH 960 0
DWIDTH 6 0
BBX 6 7 0 -1
BITMAP
10
30
50
F8
10
10
00
ENDCHAR
STARTCHAR U+0035
ENCODING 53
SWIDTH 960 0
DWIDTH 6 0
BBX 6 7 0 -1
BITMAP
F8
80
B0
C8
08
F0
00
ENDCHAR
STARTCHAR U+0036
ENCODING 54
SWIDTH 960 0
DWIDTH 6 0
BBX 6 7 0 -1
BITMAP
30
40
B0
C8
88
70
00
ENDCHAR
STARTCHAR U+0037
ENCODING 55
SWIDTH 960 0
DWIDTH 6 0
BBX 6 7 0 -1
BITMAP
F8
08
10
20
20
20
00
ENDCHAR
STARTCHAR U+0038
ENCODING 56
SWIDTH 960 0
DWIDTH 6 0
BBX 6 7 0 -1
BITMAP
70
88
70
88
88
70
00
ENDCHAR
STARTCHAR U+0039
ENCODING 57
SWIDTH 960 0
DWIDTH 6 0
BBX 6 7 0 -1
BITMAP
70
88
98
68
10
60
00
ENDCHAR
STARTCHAR U+00394
ENCODING 916
SWIDTH 960 0
DWIDTH 6 0
BBX 6 7 0 -1
BITMAP
20
20
50
50
88
F8
00
ENDCHAR
STARTCHAR U+003A
ENCODING 58
SWIDTH 960 0
DWIDTH 6 0
BBX 6 7 0 -1
BITMAP
00
60
60
00
60
60
00
ENDCHAR
STARTCHAR U+003B
ENCODING 59
SWIDTH 960 0
DWIDTH 6 0
BBX 6 7 0 -1
BITMAP
00
60
60
00
60
40
80
ENDCHAR
STARTCHAR U+003B4
ENCODING 948
SWIDTH 960 0
DWIDTH 6 0
BBX 6 7 0 -1
BITMAP
30
40
30
48
90
60
00
ENDCHAR
STARTCHAR U+003C
ENCODING 60
SWIDTH 960 0
DWIDTH 6 0
BBX 6 7 0 -1
BITMAP
08
10
20
40
20
10
08
ENDCHAR
STARTCHAR U+003D
ENCODING 61
SWIDTH 960 0
DWIDTH 6 0
BBX 6 7 0 -1
BITMAP
00
00
F8
00
F8
00
00
ENDCHAR
STARTCHAR U+003E
ENCODING 62
SWIDTH 960 0
DWIDTH 6 0
BBX 6 7 0 -1
BITMAP
80
40
20
10
20
40
80
ENDCHAR
STARTCHAR U+003F
ENCODING 63
SWIDTH 960 0
DWIDTH 6 0
BBX 6 7 0 -1
BITMAP
60
90
20
00
60
60
00
ENDCHAR
STARTCHAR U+0040
ENCODING 64
SWIDTH 960 0
DWIDTH 6 0
BBX 6 7 0 -1
BITMAP
70
88
A8
98
88
60
00
ENDCHAR
STARTCHAR U+0041
ENCODING 65
SWIDTH 960 0
DWIDTH 6 0
BBX 6 7 0 -1
BITMAP
20
50
88
F8
88
88
00
ENDCHAR
STARTCHAR U+0042
ENCODING 66
SWIDTH 960 0
DWIDTH 6 0
BBX 6 7 0 -1
BITMAP
F0
88
F0
88
88
F0
00
ENDCHAR
STARTCHAR U+0043
ENCODING 67
SWIDTH 960 0
DWIDTH 6 0
BBX 6 7 0 -1
BITMAP
78
80
80
80
80
78
00
ENDCHAR
STARTCHAR U+0044
ENCODING 68
SWIDTH 960 0
DWIDTH 6 0
BBX 6 7 0 -1
BITMAP
F0
88
88
88
88
F0
00
ENDCHAR
STARTCHAR U+0045
ENCODING 69
SWIDTH 960 0
DWIDTH 6 0
BBX 6 7 0 -1
BITMAP
F8
80
F0
80
80
F8
00
ENDCHAR
STARTCHAR U+0046
ENCODING 70
SWIDTH 960 0
DWIDTH 6 0
BBX 6 7 0 -1
BITMAP
F8
80
F0
80
80
80
00
ENDCHAR
STARTCHAR U+0047
ENCODING 71
SWIDTH 960 0
DWIDTH 6 0
BBX 6 7 0 -1
BITMAP
78
80
98
88
88
78
00
ENDCHAR
STARTCHAR U+0048
ENCODING 72
SWIDTH 960 0
DWIDTH 6 0
BBX 6 7 0 -1
BITMAP
88
88
F8
88
88
88
00
ENDCHAR
STARTCHAR U+0049
ENCODING 73
SWIDTH 960 0
DWIDTH 6 0
BBX 6 7 0 -1
BITMAP
F8
20
20
20
20
F8
00
ENDCHAR
STARTCHAR U+004A
ENCODING 74
SWIDTH 960 0
DWIDTH 6 0
BBX 6 7 0 -1
BITMAP
08
08
08
08
88
70
00
ENDCHAR
STARTCHAR U+004B
ENCODING 75
SWIDTH 960 0
DWIDTH 6 0
BBX 6 7 0 -1
BITMAP
88
90
A0
D0
88
88
00
ENDCHAR
STARTCHAR U+004C
ENCODING 76
SWIDTH 960 0
DWIDTH 6 0
BBX 6 7 0 -1
BITMAP
80
80
80
80
80
F8
00
ENDCHAR
STARTCHAR U+004D
ENCODING 77
SWIDTH 960 0
DWIDTH 6 0
BBX 6 7 0 -1
BITMAP
88
D8
A8
88
88
88
00
ENDCHAR
STARTCHAR U+004E
ENCODING 78
SWIDTH 960 0
DWIDTH 6 0
BBX 6 7 0 -1
BITMAP
88
C8
A8
98
88
88
00
ENDCHAR
STARTCHAR U+004F
ENCODING 79
SWIDTH 960 0
DWIDTH 6 0
BBX 6 7 0 -1
BITMAP
70
88
88
88
88
70
00
ENDCHAR
STARTCHAR U+0050
ENCODING 80
SWIDTH 960 0
DWIDTH 6 0
BBX 6 7 0 -1
BITMAP
F0
88
F0
80
80
80
00
ENDCHAR
STARTCHAR U+0051
ENCODING 81
SWIDTH 960 0
DWIDTH 6 0
BBX 6 7 0 -1
BITMAP
70
88
88
A8
90
68
00
ENDCHAR
STARTCHAR U+0052
ENCODING 82
SWIDTH 960 0
DWIDTH 6 0
BBX 6 7 0 -1
BITMAP
F0
88
F0
A0
90
88
00
ENDCHAR
STARTCHAR U+0053
ENCODING 83
SWIDTH 960 0
DWIDTH 6 0
BBX 6 7 0 -1
BITMAP
70
88
60
10
88
70
00
ENDCHAR
STARTCHAR U+0054
ENCODING 84
SWIDTH 960 0
DWIDTH 6 0
BBX 6 7 0 -1
BITMAP
F8
20
20
20
20
20
00
ENDCHAR
STARTCHAR U+0055
ENCODING 85
SWIDTH 960 0
DWIDTH 6 0
BBX 6 7 0 -1
BITMAP
88
88
88
88
88
70
00
ENDCHAR
STARTCHAR U+0056
ENCODING 86
SWIDTH 960 0
DWIDTH 6 0
BBX 6 7 0 -1
BITMAP
88
88
88
88
50
20
00
ENDCHAR
STARTCHAR U+0057
ENCODING 87
SWIDTH 960 0
DWIDTH 6 0
BBX 6 7 0 -1
BITMAP
88
88
88
A8
A8
50
00
ENDCHAR
STARTCHAR U+0058
ENCODING 88
SWIDTH 960 0
DWIDTH 6 0
BBX 6 7 0 -1
BITMAP
88
50
20
20
50
88
00
ENDCHAR
STARTCHAR U+0059
ENCODING 89
SWIDTH 960 0
DWIDTH 6 0
BBX 6 7 0 -1
BITMAP
88
50
20
20
20
20
00
ENDCHAR
STARTCHAR U+005A
ENCODING 90
SWIDTH 960 0
DWIDTH 6 0
BBX 6 7 0 -1
BITMAP
F8
10
20
40
80
F8
00
ENDCHAR
STARTCHAR U+005B
ENCODING 91
SWIDTH 960 0
DWIDTH 6 0
BBX 6 7 0 -1
BITMAP
38
20
20
20
20
20
38
ENDCHAR
STARTCHAR U+005C
ENCODING 92
SWIDTH 960 0
DWIDTH 6 0
BBX 6 7 0 -1
BITMAP
80
80
40
20
10
08
08
ENDCHAR
STARTCHAR U+005D
ENCODING 93
SWIDTH 960 0
DWIDTH 6 0
BBX 6 7 0 -1
BITMAP
E0
20
20
20
20
20
E0
ENDCHAR
STARTCHAR U+005E
ENCODING 94
SWIDTH 960 0
DWIDTH 6 0
BBX 6 7 0 -1
BITMAP
20
50
88
00
00
00
00
ENDCHAR
STARTCHAR U+005F
ENCODING 95
SWIDTH 960 0
DWIDTH 6 0
BBX 6 7 0 -1
BITMAP
00
00
00
00
00
00
F8
ENDCHAR
STARTCHAR U+0060
ENCODING 96
SWIDTH 960 0
DWIDTH 6 0
BBX 6 7 0 -1
BITMAP
60
20
10
00
00
00
00
ENDCHAR
STARTCHAR U+0061
ENCODING 97
SWIDTH 960 0
DWIDTH 6 0
BBX 6 7 0 -1
BITMAP
00
20
50
88
F8
88
00
ENDCHAR
STARTCHAR U+0062
ENCODING 98
SWIDTH 960 0
DWIDTH 6 0
BBX 6 7 0 -1
BITMAP
00
F0
88
F0
88
F0
00
ENDCHAR
STARTCHAR U+0063
ENCODING 99
SWIDTH 960 0
DWIDTH 6 0
BBX 6 7 0 -1
BITMAP
00
78
80
80
80
78
00
ENDCHAR
STARTCHAR U+0064
ENCODING 100
SWIDTH 960 0
DWIDTH 6 0
BBX 6 7 0 -1
BITMAP
00
F0
88
88
88
F0
00
ENDCHAR
STARTCHAR U+0065
ENCODING 101
SWIDTH 960 0
DWIDTH 6 0
BBX 6 7 0 -1
BITMAP
00
F8
80
F0
80
F8
00
ENDCHAR
STARTCHAR U+0066
ENCODING 102
SWIDTH 960 0
DWIDTH 6 0
BBX 6 7 0 -1
BITMAP
00
F8
80
F0
80
80
00
ENDCHAR
STARTCHAR U+0067
ENCODING 103
SWIDTH 960 0
DWIDTH 6 0
BBX 6 7 0 -1
BITMAP
00
78
80
98
88
78
00
ENDCHAR
STARTCHAR U+0068
ENCODING 104
SWIDTH 960 0
DWIDTH 6 0
BBX 6 7 0 -1
BITMAP
00
88
88
F8
88
88
00
ENDCHAR
STARTCHAR U+0069
ENCODING 105
SWIDTH 960 0
DWIDTH 6 0
BBX 6 7 0 -1
BITMAP
00
F8
20
20
20
F8
00
ENDCHAR
STARTCHAR U+006A
ENCODING 106
SWIDTH 960 0
DWIDTH 6 0
BBX 6 7 0 -1
BITMAP
00
08
08
08
88
70
00
ENDCHAR
STARTCHAR U+006B
ENCODING 107
SWIDTH 960 0
DWIDTH 6 0
BBX 6 7 0 -1
BITMAP
00
88
90
A0
D0
88
00
ENDCHAR
STARTCHAR U+006C
ENCODING 108
SWIDTH 960 0
DWIDTH 6 0
BBX 6 7 0 -1
BITMAP
00
80
80
80
80
F8
00
ENDCHAR
STARTCHAR U+006D
ENCODING 109
SWIDTH 960 0
DWIDTH 6 0
BBX 6 7 0 -1
BITMAP
00
88
D8
A8
88
88
00
ENDCHAR
STARTCHAR U+006E
ENCODING 110
SWIDTH 960 0
DWIDTH 6 0
BBX 6 7 0 -1
BITMAP
00
88
C8
A8
98
88
00
ENDCHAR
STARTCHAR U+006F
ENCODING 111
SWIDTH 960 0
DWIDTH 6 0
BBX 6 7 0 -1
BITMAP
00
70
88
88
88
70
00
ENDCHAR
STARTCHAR U+0070
ENCODING 112
SWIDTH 960 0
DWIDTH 6 0
BBX 6 7 0 -1
BITMAP
00
F0
88
F0
80
80
00
ENDCHAR
STARTCHAR U+0071
ENCODING 113
SWIDTH 960 0
DWIDTH 6 0
BBX 6 7 0 -1
BITMAP
00
70
88
A8
90
68
00
ENDCHAR
STARTCHAR U+0072
ENCODING 114
SWIDTH 960 0
DWIDTH 6 0
BBX 6 7 0 -1
BITMAP
00
F0
88
F0
88
88
00
ENDCHAR
STARTCHAR U+0073
ENCODING 115
SWIDTH 960 0
DWIDTH 6 0
BBX 6 7 0 -1
BITMAP
00
78
80
70
08
F0
00
ENDCHAR
STARTCHAR U+0074
ENCODING 116
SWIDTH 960 0
DWIDTH 6 0
BBX 6 7 0 -1
BITMAP
00
F8
20
20
20
20
00
ENDCHAR
STARTCHAR U+0075
ENCODING 117
SWIDTH 960 0
DWIDTH 6 0
BBX 6 7 0 -1
BITMAP
00
88
88
88
88
70
00
ENDCHAR
STARTCHAR U+0076
ENCODING 118
SWIDTH 960 0
DWIDTH 6 0
BBX 6 7 0 -1
BITMAP
00
88
88
88
50
20
00
ENDCHAR
STARTCHAR U+0077
ENCODING 119
SWIDTH 960 0
DWIDTH 6 0
BBX 6 7 0 -1
BITMAP
00
88
88
A8
A8
50
00
ENDCHAR
STARTCHAR U+0078
ENCODING 120
SWIDTH 960 0
DWIDTH 6 0
BBX 6 7 0 -1
BITMAP
00
88
50
20
50
88
00
ENDCHAR
STARTCHAR U+0079
ENCODING 121
SWIDTH 960 0
DWIDTH 6 0
BBX 6 7 0 -1
BITMAP
00
88
50
20
20
20
00
ENDCHAR
STARTCHAR U+007A
ENCODING 122
SWIDTH 960 0
DWIDTH 6 0
BBX 6 7 0 -1
BITMAP
00
F8
10
20
40
F8
00
ENDCHAR
STARTCHAR U+007B
ENCODING 123
SWIDTH 960 0
DWIDTH 6 0
BBX 6 7 0 -1
BITMAP
18
20
20
C0
20
20
18
ENDCHAR
STARTCHAR U+007C
ENCODING 124
SWIDTH 960 0
DWIDTH 6 0
BBX 6 7 0 -1
BITMAP
20
20
20
20
20
20
00
ENDCHAR
STARTCHAR U+007D
ENCODING 125
SWIDTH 960 0
DWIDTH 6 0
BBX 6 7 0 -1
BITMAP
C0
20
20
18
20
20
C0
ENDCHAR
STARTCHAR U+007E
ENCODING 126
SWIDTH 960 0
DWIDTH 6 0
BBX 6 7 0 -1
BITMAP
48
A8
90
00
00
00
00
ENDCHAR
STARTCHAR U+0088
ENCODING 136
SWIDTH 960 0
DWIDTH 6 0
BBX 6 7 0 -1
BITMAP
00
00
00
00
00
00
00
ENDCHAR
STARTCHAR U+01D65
ENCODING 7525
SWIDTH 960 0
DWIDTH 6 0
BBX 6 7 0 -1
BITMAP
00
00
00
00
00
00
00
ENDCHAR
STARTCHAR U+02032
ENCODING 8242
SWIDTH 960 0
DWIDTH 6 0
BBX 6 7 0 -1
BITMAP
40
80
00
00
00
00
00
ENDCHAR
STARTCHAR U+02033
ENCODING 8243
SWIDTH 960 0
DWIDTH 6 0
BBX 6 7 0 -1
BITMAP
50
A0
00
00
00
00
00
ENDCHAR
STARTCHAR U+02080
ENCODING 8320
SWIDTH 960 0
DWIDTH 6 0
BBX 6 7 0 -1
BITMAP
00
00
00
20
50
50
20
ENDCHAR
STARTCHAR U+02091
ENCODING 8337
SWIDTH 960 0
DWIDTH 6 0
BBX 6 7 0 -1
BITMAP
00
00
20
50
70
40
30
ENDCHAR
STARTCHAR U+02099
ENCODING 8345
SWIDTH 960 0
DWIDTH 6 0
BBX 6 7 0 -1
BITMAP
00
00
00
60
50
50
50
ENDCHAR
STARTCHAR U+0209C
ENCODING 8348
SWIDTH 960 0
DWIDTH 6 0
BBX 6 7 0 -1
BITMAP
00
00
00
20
70
20
10
ENDCHAR
STARTCHAR U+02300
ENCODING 8960
SWIDTH 960 0
DWIDTH 6 0
BBX 6 7 0 -1
BITMAP
00
78
98
A8
C8
F0
00
ENDCHAR
STARTCHAR U+02333
ENCODING 9011
SWIDTH 960 0
DWIDTH 6 0
BBX 6 7 0 -1
BITMAP
00
00
00
C0
B0
FC
00
ENDCHAR
STARTCHAR U+02581
ENCODING 9601
SWIDTH 960 0
DWIDTH 6 0
BBX 6 7 0 -1
BITMAP
00
00
00
00
00
00
EC
ENDCHAR
STARTCHAR U+02582
ENCODING 9602
SWIDTH 960 0
DWIDTH 6 0
BBX 6 7 0 -1
BITMAP
00
00
00
00
00
B4
FC
ENDCHAR
STARTCHAR U+02583
ENCODING 9603
SWIDTH 960 0
DWIDTH 6 0
BBX 6 7 0 -1
BITMAP
00
00
00
00
54
FC
FC
ENDCHAR
STARTCHAR U+02584
ENCODING 9604
SWIDTH 960 0
DWIDTH 6 0
BBX 6 7 0 -1
BITMAP
00
00
00
B4
FC
FC
FC
ENDCHAR
STARTCHAR U+02585
ENCODING 9605
SWIDTH 960 0
DWIDTH 6 0
BBX 6 7 0 -1
BITMAP
00
00
54
FC
FC
FC
FC
ENDCHAR
STARTCHAR U+02586
ENCODING 9606
SWIDTH 960 0
DWIDTH 6 0
BBX 6 7 0 -1
BITMAP
00
48
FC
FC
FC
FC
FC
ENDCHAR
STARTCHAR U+02587
ENCODING 9607
SWIDTH 960 0
DWIDTH 6 0
BBX 6 7 0 -1
BITMAP
10
FC
FC
FC
FC
FC
FC
ENDCHAR
STARTCHAR U+02588
ENCODING 9608
SWIDTH 960 0
DWIDTH 6 0
BBX 6 7 0 -1
BITMAP
FC
FC
FC
FC
FC
FC
FC
ENDCHAR
STARTCHAR U+02589
ENCODING 9609
SWIDTH 960 0
DWIDTH 6 0
BBX 6 7 0 -1
BITMAP
F8
F8
FC
F8
F8
FC
F8
ENDCHAR
STARTCHAR U+0258A
ENCODING 9610
SWIDTH 960 0
DWIDTH 6 0
BBX 6 7 0 -1
BITMAP
F0
F8
F0
F8
F0
F8
F0
ENDCHAR
STARTCHAR U+0258B
ENCODING 9611
SWIDTH 960 0
DWIDTH 6 0
BBX 6 7 0 -1
BITMAP
F0
F0
E0
F0
F0
E0
F0
ENDCHAR
STARTCHAR U+0258C
ENCODING 9612
SWIDTH 960 0
DWIDTH 6 0
BBX 6 7 0 -1
BITMAP
E0
E0
E0
E0
E0
E0
E0
ENDCHAR
STARTCHAR U+0258D
ENCODING 9613
SWIDTH 960 0
DWIDTH 6 0
BBX 6 7 0 -1
BITMAP
C0
C0
E0
C0
C0
E0
C0
ENDCHAR
STARTCHAR U+0258E
ENCODING 9614
SWIDTH 960 0
DWIDTH 6 0
BBX 6 7 0 -1
BITMAP
80
C0
80
C0
80
C0
80
ENDCHAR
STARTCHAR U+0258F
ENCODING 9615
SWIDTH 960 0
DWIDTH 6 0
BBX 6 7 0 -1
BITMAP
80
80
00
80
80
00
80
ENDCHAR
STARTCHAR U+02611
ENCODING 9745
SWIDTH 960 0
DWIDTH 6 0
BBX 6 7 0 -1
BITMAP
04
F8
98
E8
C8
F8
00
ENDCHAR
STARTCHAR U+02612
ENCODING 9746
SWIDTH 960 0
DWIDTH 6 0
BBX 6 7 0 -1
BITMAP
00
F8
D8
A8
D8
F8
00
ENDCHAR
STARTCHAR U+1D401
ENCODING 119809
SWIDTH 960 0
DWIDTH 6 0
BBX 6 7 0 -1
BITMAP
F0
48
48
F0
48
48
F0
ENDCHAR
STARTCHAR U+1D42F
ENCODING 119855
SWIDTH 960 0
DWIDTH 6 0
BBX 6 7 0 -1
BITMAP
00
00
C8
68
38
18
00
ENDCHAR
STARTCHAR U+1D438
ENCODING 119864
SWIDTH 960 0
DWIDTH 6 0
BBX 6 7 0 -1
BITMAP
7C
24
20
70
40
48
F8
ENDCHAR
STARTCHAR U+1D43A
ENCODING 119866
SWIDTH 960 0
DWIDTH 6 0
BBX 6 7 0 -1
BITMAP
3C
44
40
9C
84
84
78
ENDCHAR
STARTCHAR U+1D43F
ENCODING 119871
SWIDTH 960 0
DWIDTH 6 0
BBX 6 7 0 -1
BITMAP
70
20
20
40
40
44
FC
ENDCHAR
STARTCHAR U+1D440
ENCODING 119872
SWIDTH 960 0
DWIDTH 6 0
BBX 6 7 0 -1
BITMAP
44
6C
54
88
88
88
00
ENDCHAR
STARTCHAR U+1D443
ENCODING 119875
SWIDTH 960 0
DWIDTH 6 0
BBX 6 7 0 -1
BITMAP
78
24
24
78
40
80
C0
ENDCHAR
STARTCHAR U+1D447
ENCODING 119879
SWIDTH 960 0
DWIDTH 6 0
BBX 6 7 0 -1
BITMAP
7C
54
10
10
20
20
70
ENDCHAR
STARTCHAR U+1D44E
ENCODING 119886
SWIDTH 960 0
DWIDTH 6 0
BBX 6 7 0 -1
BITMAP
00
3C
44
88
98
6C
00
ENDCHAR
STARTCHAR U+1D451
ENCODING 119889
SWIDTH 960 0
DWIDTH 6 0
BBX 6 7 0 -1
BITMAP
04
3C
44
88
98
68
00
ENDCHAR
STARTCHAR U+1D454
ENCODING 119892
SWIDTH 960 0
DWIDTH 6 0
BBX 6 7 0 -1
BITMAP
3C
44
88
98
68
10
E0
ENDCHAR
STARTCHAR U+1D456
ENCODING 119894
SWIDTH 960 0
DWIDTH 6 0
BBX 6 7 0 -1
BITMAP
10
00
30
10
20
20
30
ENDCHAR
STARTCHAR U+1D45A
ENCODING 119898
SWIDTH 960 0
DWIDTH 6 0
BBX 6 7 0 -1
BITMAP
00
00
D8
74
A8
AC
00
ENDCHAR
STARTCHAR U+1D45D
ENCODING 119901
SWIDTH 960 0
DWIDTH 6 0
BBX 6 7 0 -1
BITMAP
00
00
F0
48
70
80
80
ENDCHAR
STARTCHAR U+1D461
ENCODING 119905
SWIDTH 960 0
DWIDTH 6 0
BBX 6 7 0 -1
BITMAP
00
10
78
20
40
60
00
ENDCHAR
STARTCHAR U+1D463
ENCODING 119907
SWIDTH 960 0
DWIDTH 6 0
BBX 6 7 0 -1
BITMAP
00
00
48
50
60
40
00
ENDCHAR
STARTCHAR U+1D465
ENCODING 119909
SWIDTH 960 0
DWIDTH 6 0
BBX 6 7 0 -1
BITMAP
00
C4
68
30
58
8C
00
ENDCHAR
STARTCHAR U+1D466
ENCODING 119910
SWIDTH 960 0
DWIDTH 6 0
BBX 6 7 0 -1
BITMAP
00
48
48
48
50
60
C0
ENDCHAR
STARTCHAR U+1D467
ENCODING 119911
SWIDTH 960 0
DWIDTH 6 0
BBX 6 7 0 -1
BITMAP
00
6C
98
30
64
D8
00
ENDCHAR
STARTCHAR U+1D6FC
ENCODING 120572
SWIDTH 960 0
DWIDTH 6 0
BBX 6 7 0 -1
BITMAP
00
34
4C
98
B0
58
00
ENDCHAR
STARTCHAR U+1D703
ENCODING 120579
SWIDTH 960 0
DWIDTH 6 0
BBX 6 7 0 -1
BITMAP
10
28
38
50
50
20
00
ENDCHAR
STARTCHAR U+1D70C
ENCODING 120588
SWIDTH 960 0
DWIDTH 6 0
BBX 6 7 0 -1
BITMAP
00
00
10
28
28
50
40
ENDCHAR
STARTCHAR U+1D719
ENCODING 120601
SWIDTH 960 0
DWIDTH 6 0
BBX 6 7 0 -1
BITMAP
10
38
54
A8
A8
70
20
ENDCHAR
STARTCHAR U+1F311
ENCODING 127761
SWIDTH 960 0
DWIDTH 6 0
BBX 6 7 0 -1
BITMAP
30
78
FC
FC
78
30
00
ENDCHAR
STARTCHAR U+1F312
ENCODING 127762
SWIDTH 960 0
DWIDTH 6 0
BBX 6 7 0 -1
BITMAP
30
68
F4
F4
78
30
00
ENDCHAR
STARTCHAR U+1F313
ENCODING 127763
SWIDTH 960 0
DWIDTH 6 0
BBX 6 7 0 -1
BITMAP
30
68
E4
E4
68
30
00
ENDCHAR
STARTCHAR U+1F314
ENCODING 127764
SWIDTH 960 0
DWIDTH 6 0
BBX 6 7 0 -1
BITMAP
30
48
C4
C4
68
30
00
ENDCHAR
STARTCHAR U+1F315
ENCODING 127765
SWIDTH 960 0
DWIDTH 6 0
BBX 6 7 0 -1
BITMAP
30
48
84
84
48
30
00
ENDCHAR
STARTCHAR U+1F316
ENCODING 127766
SWIDTH 960 0
DWIDTH 6 0
BBX 6 7 0 -1
BITMAP
30
58
8C
8C
48
30
00
ENDCHAR
STARTCHAR U+1F317
ENCODING 127767
SWIDTH 960 0
DWIDTH 6 0
BBX 6 7 0 -1
BITMAP
30
58
9C
9C
58
30
00
ENDCHAR
STARTCHAR U+1F318
ENCODING 127768
SWIDTH 960 0
DWIDTH 6 0
BBX 6 7 0 -1
BITMAP
30
78
BC
BC
58
30
00
ENDCHAR
STARTCHAR U+02227
ENCODING 8743
SWIDTH 960 0
DWIDTH 6 0
BBX 6 7 0 -1
BITMAP
00
00
20
50
88
00
00
ENDCHAR
STARTCHAR U+02220
ENCODING 8736
SWIDTH 960 0
DWIDTH 6 0
BBX 6 7 0 -1
BITMAP
00
08
10
20
40
F8
00
ENDCHAR
STARTCHAR U+022BD
ENCODING 8893
SWIDTH 960 0
DWIDTH 6 0
BBX 6 7 0 -1
BITMAP
F8
00
88
50
20
00
00
ENDCHAR
STARTCHAR U+02305
ENCODING 8965
SWIDTH 960 0
DWIDTH 6 0
BBX 6 7 0 -1
BITMAP
F8
00
20
50
88
00
00
ENDCHAR
STARTCHAR U+022A5
ENCODING 8869
SWIDTH 960 0
DWIDTH 6 0
BBX 6 7 0 -1
BITMAP
20
20
20
20
20
F8
00
ENDCHAR
STARTCHAR U+02229
ENCODING 8745
SWIDTH 960 0
DWIDTH 6 0
BBX 6 7 0 -1
BITMAP
00
00
70
88
88
00
00
ENDCHAR
STARTCHAR U+02713
ENCODING 10003
SWIDTH 960 0
DWIDTH 6 0
BBX 6 7 0 -1
BITMAP
00
04
08
10
A0
40
00
ENDCHAR
STARTCHAR U+02717
ENCODING 10007
SWIDTH 960 0
DWIDTH 6 0
BBX 6 7 0 -1
BITMAP
00
88
50
20
50
88
00
ENDCHAR
STARTCHAR U+0222A
ENCODING 8746
SWIDTH 960 0
DWIDTH 6 0
BBX 6 7 0 -1
BITMAP
00
00
88
88
70
00
00
ENDCHAR
STARTCHAR U+02193
ENCODING 8595
SWIDTH 960 0
DWIDTH 6 0
BBX 6 7 0 -1
BITMAP
20
20
20
A8
70
20
00
ENDCHAR
STARTCHAR U+000B0
ENCODING 176
SWIDTH 960 0
DWIDTH 6 0
BBX 6 7 0 -1
BITMAP
40
A0
40
00
00
00
00
ENDCHAR
STARTCHAR U+000F7
ENCODING 247
SWIDTH 960 0
DWIDTH 6 0
BBX 6 7 0 -1
BITMAP
00
20
00
F8
00
20
00
ENDCHAR
STARTCHAR U+02113
ENCODING 8467
SWIDTH 960 0
DWIDTH 6 0
BBX 6 7 0 -1
BITMAP
30
48
48
F0
40
30
00
ENDCHAR
STARTCHAR U+003B5
ENCODING 949
SWIDTH 960 0
DWIDTH 6 0
BBX 6 7 0 -1
BITMAP
00
70
88
40
88
70
00
ENDCHAR
STARTCHAR U+02261
ENCODING 8801
SWIDTH 960 0
DWIDTH 6 0
BBX 6 7 0 -1
BITMAP
00
F8
00
F8
00
F8
00
ENDCHAR
STARTCHAR U+00192
ENCODING 402
SWIDTH 960 0
DWIDTH 6 0
BBX 6 7 0 -1
BITMAP
18
24
78
20
20
A0
40
ENDCHAR
STARTCHAR U+003BB
ENCODING 955
SWIDTH 960 0
DWIDTH 6 0
BBX 6 7 0 -1
BITMAP
00
80
40
20
50
88
00
ENDCHAR
STARTCHAR U+02190
ENCODING 8592
SWIDTH 960 0
DWIDTH 6 0
BBX 6 7 0 -1
BITMAP
00
20
40
F8
40
20
00
ENDCHAR
STARTCHAR U+02014
ENCODING 8212
SWIDTH 960 0
DWIDTH 6 0
BBX 6 7 0 -1
BITMAP
00
00
00
F8
00
00
00
ENDCHAR
STARTCHAR U+000B5
ENCODING 181
SWIDTH 960 0
DWIDTH 6 0
BBX 6 7 0 -1
BITMAP
00
88
88
88
98
E8
80
ENDCHAR
STARTCHAR U+000B7
ENCODING 183
SWIDTH 960 0
DWIDTH 6 0
BBX 6 7 0 -1
BITMAP
00
00
00
20
00
00
00
ENDCHAR
STARTCHAR U+02260
ENCODING 8800
SWIDTH 960 0
DWIDTH 6 0
BBX 6 7 0 -1
BITMAP
00
08
F8
20
F8
80
00
ENDCHAR
STARTCHAR U+02197
ENCODING 8599
SWIDTH 960 0
DWIDTH 6 0
BBX 6 7 0 -1
BITMAP
00
78
18
28
48
80
00
ENDCHAR
STARTCHAR U+000AC
ENCODING 172
SWIDTH 960 0
DWIDTH 6 0
BBX 6 7 0 -1
BITMAP
00
00
00
F8
08
00
00
ENDCHAR
STARTCHAR U+02284
ENCODING 8836
SWIDTH 960 0
DWIDTH 6 0
BBX 6 7 0 -1
BITMAP
08
78
90
A0
78
40
00
ENDCHAR
STARTCHAR U+02288
ENCODING 8840
SWIDTH 960 0
DWIDTH 6 0
BBX 6 7 0 -1
BITMAP
78
90
A0
78
80
F8
00
ENDCHAR
STARTCHAR U+02285
ENCODING 8837
SWIDTH 960 0
DWIDTH 6 0
BBX 6 7 0 -1
BITMAP
10
F0
28
48
F0
80
00
ENDCHAR
STARTCHAR U+02289
ENCODING 8841
SWIDTH 960 0
DWIDTH 6 0
BBX 6 7 0 -1
BITMAP
F8
18
28
F0
80
F8
00
ENDCHAR
STARTCHAR U+02196
ENCODING 8598
SWIDTH 960 0
DWIDTH 6 0
BBX 6 7 0 -1
BITMAP
00
F0
C0
A0
90
08
00
ENDCHAR
STARTCHAR U+003C9
ENCODING 969
SWIDTH 960 0
DWIDTH 6 0
BBX 6 7 0 -1
BITMAP
00
50
88
A8
A8
50
00
ENDCHAR
STARTCHAR U+02228
ENCODING 8744
SWIDTH 960 0
DWIDTH 6 0
BBX 6 7 0 -1
BITMAP
00
00
88
50
20
00
00
ENDCHAR
STARTCHAR U+000BA
ENCODING 186
SWIDTH 960 0
DWIDTH 6 0
BBX 6 7 0 -1
BITMAP
40
A0
A0
40
00
E0
00
ENDCHAR
STARTCHAR U+003C6
ENCODING 966
SWIDTH 960 0
DWIDTH 6 0
BBX 6 7 0 -1
BITMAP
00
30
A8
A8
A8
70
20
ENDCHAR
STARTCHAR U+0210E
ENCODING 8462
SWIDTH 960 0
DWIDTH 6 0
BBX 6 7 0 -1
BITMAP
C0
40
78
48
90
98
00
ENDCHAR
STARTCHAR U+000B1
ENCODING 177
SWIDTH 960 0
DWIDTH 6 0
BBX 6 7 0 -1
BITMAP
20
20
F8
20
20
00
F8
ENDCHAR
STARTCHAR U+000A3
ENCODING 163
SWIDTH 960 0
DWIDTH 6 0
BBX 6 7 0 -1
BITMAP
70
88
40
F8
40
F8
00
ENDCHAR
STARTCHAR U+003C8
ENCODING 968
SWIDTH 960 0
DWIDTH 6 0
BBX 6 7 0 -1
BITMAP
00
00
A8
A8
A8
70
20
ENDCHAR
STARTCHAR U+02192
ENCODING 8594
SWIDTH 960 0
DWIDTH 6 0
BBX 6 7 0 -1
BITMAP
00
20
10
F8
10
20
00
ENDCHAR
STARTCHAR U+02198
ENCODING 8600
SWIDTH 960 0
DWIDTH 6 0
BBX 6 7 0 -1
BITMAP
00
80
48
28
18
78
00
ENDCHAR
STARTCHAR U+003D5
ENCODING 981
SWIDTH 960 0
DWIDTH 6 0
BBX 6 7 0 -1
BITMAP
20
70
A8
A8
A8
70
20
ENDCHAR
STARTCHAR U+02282
ENCODING 8834
SWIDTH 960 0
DWIDTH 6 0
BBX 6 7 0 -1
BITMAP
00
78
80
80
78
00
00
ENDCHAR
STARTCHAR U+02286
ENCODING 8838
SWIDTH 960 0
DWIDTH 6 0
BBX 6 7 0 -1
BITMAP
78
80
80
78
00
F8
00
ENDCHAR
STARTCHAR U+0228A
ENCODING 8842
SWIDTH 960 0
DWIDTH 6 0
BBX 6 7 0 -1
BITMAP
78
80
80
78
10
F8
40
ENDCHAR
STARTCHAR U+02283
ENCODING 8835
SWIDTH 960 0
DWIDTH 6 0
BBX 6 7 0 -1
BITMAP
00
F0
08
08
F0
00
00
ENDCHAR
STARTCHAR U+000B2
ENCODING 178
SWIDTH 960 0
DWIDTH 6 0
BBX 6 7 0 -1
BITMAP
40
A0
40
80
E0
00
00
ENDCHAR
STARTCHAR U+000B3
ENCODING 179
SWIDTH 960 0
DWIDTH 6 0
BBX 6 7 0 -1
BITMAP
C0
20
40
20
C0
00
00
ENDCHAR
STARTCHAR U+02287
ENCODING 8839
SWIDTH 960 0
DWIDTH 6 0
BBX 6 7 0 -1
BITMAP
F0
08
08
F0
00
F8
00
ENDCHAR
STARTCHAR U+0228B
ENCODING 8843
SWIDTH 960 0
DWIDTH 6 0
BBX 6 7 0 -1
BITMAP
F0
08
08
F0
10
F8
40
ENDCHAR
STARTCHAR U+02199
ENCODING 8601
SWIDTH 960 0
DWIDTH 6 0
BBX 6 7 0 -1
BITMAP
00
08
90
A0
C0
F0
00
ENDCHAR
STARTCHAR U+003B8
ENCODING 952
SWIDTH 960 0
DWIDTH 6 0
BBX 6 7 0 -1
BITMAP
20
50
70
50
50
20
00
ENDCHAR
STARTCHAR U+022A4
ENCODING 8868
SWIDTH 960 0
DWIDTH 6 0
BBX 6 7 0 -1
BITMAP
F8
20
20
20
20
20
00
ENDCHAR
STARTCHAR U+02191
ENCODING 8593
SWIDTH 960 0
DWIDTH 6 0
BBX 6 7 0 -1
BITMAP
20
70
A8
20
20
20
00
ENDCHAR
STARTCHAR U+022BB
ENCODING 8891
SWIDTH 960 0
DWIDTH 6 0
BBX 6 7 0 -1
BITMAP
00
88
50
20
00
F8
00
ENDCHAR
ENDFONT
